<svg fill="#000000" xmlns="http://www.w3.org/2000/svg"  viewBox="0 0 50 50" width="50px" height="50px"><path d="M 32.214844 2.0625 L 27.855469 3.7753906 L 28.617188 7.5898438 C 28.320231 7.8892397 28.002463 8.2286969 27.666016 8.5976562 L 23.910156 7.7382812 L 22.052734 12.070312 L 25.306641 14.238281 C 25.275891 14.736921 25.276911 15.238059 25.306641 15.736328 L 21.962891 17.785156 L 23.675781 22.144531 L 27.488281 21.382812 C 27.798956 21.750529 28.138774 22.089048 28.505859 22.400391 L 27.638672 26.191406 L 31.970703 28.046875 L 34.140625 24.792969 C 34.638586 24.823599 35.139099 24.822659 35.636719 24.792969 L 37.685547 28.136719 L 42.052734 26.421875 L 41.185547 22.308594 C 41.549034 22.00117 41.883047 21.665337 42.191406 21.302734 L 46.083984 22.277344 L 46.419922 21.494141 L 47.958984 17.898438 L 44.59375 15.835938 C 44.62297 15.346113 44.62297 14.853105 44.59375 14.363281 L 47.9375 12.314453 L 46.21875 7.9375 L 42.302734 8.8085938 C 41.994383 8.4447135 41.658646 8.1092982 41.294922 7.8007812 L 42.160156 4.0097656 L 37.810547 2.1445312 L 35.742188 5.4101562 C 35.279707 5.3645942 34.78331 5.3833909 34.271484 5.4199219 L 32.214844 2.0625 z M 31.384766 4.5371094 L 33.220703 7.53125 L 33.916016 7.3769531 C 34.624606 7.2194885 35.281373 7.2936332 36.189453 7.3945312 L 36.810547 7.4628906 L 38.589844 4.6542969 L 39.839844 5.1914062 L 39.076172 8.5273438 L 39.619141 8.9140625 C 40.231169 9.3512259 40.748383 9.8684396 41.185547 10.480469 L 41.570312 11.019531 L 44.982422 10.261719 L 45.462891 11.486328 L 42.535156 13.279297 L 42.605469 13.910156 C 42.698289 14.745513 42.698289 15.453706 42.605469 16.289062 L 42.535156 16.919922 L 45.439453 18.701172 L 44.916016 19.921875 L 41.482422 19.064453 L 41.085938 19.619141 C 40.648773 20.231169 40.13156 20.748383 39.519531 21.185547 L 38.986328 21.566406 L 39.748047 25.177734 L 38.513672 25.662109 L 36.720703 22.736328 L 36.089844 22.806641 C 35.254487 22.899461 34.546295 22.899461 33.710938 22.806641 L 33.105469 22.738281 L 31.228516 25.552734 L 29.960938 25.009766 L 30.722656 21.673828 L 30.181641 21.287109 C 29.569612 20.849946 29.050445 20.330779 28.613281 19.71875 L 28.238281 19.193359 L 24.923828 19.855469 L 24.4375 18.615234 L 27.363281 16.820312 L 27.292969 16.189453 C 27.200149 15.354096 27.200149 14.645904 27.292969 13.810547 L 27.361328 13.205078 L 24.546875 11.330078 L 25.089844 10.060547 L 28.365234 10.808594 L 28.759766 10.351562 C 29.329137 9.6872962 29.90625 9.1074219 30.40625 8.6074219 L 30.785156 8.2285156 L 30.144531 5.0253906 L 31.384766 4.5371094 z M 35 10 C 32.254545 10 30 12.254545 30 15 C 30 17.745455 32.254545 20 35 20 C 37.745455 20 40 17.745455 40 15 C 40 12.254545 37.745455 10 35 10 z M 35 12 C 36.654545 12 38 13.345455 38 15 C 38 16.654545 36.654545 18 35 18 C 33.345455 18 32 16.654545 32 15 C 32 13.345455 33.345455 12 35 12 z M 13.544922 20 L 12.896484 24.113281 C 12.355405 24.287471 11.836518 24.503931 11.339844 24.769531 L 7.8945312 22.292969 L 4.4042969 25.78125 L 6.7734375 29.224609 C 6.5059907 29.760781 6.273054 30.290202 6.09375 30.814453 L 2 31.568359 L 2 36.431641 L 6.1074219 37.189453 C 6.2812998 37.733147 6.4993108 38.25289 6.765625 38.751953 L 4.2832031 42.097656 L 7.78125 45.595703 L 11.224609 43.226562 C 11.755373 43.491312 12.279517 43.720506 12.798828 43.898438 L 13.445312 48 L 18.332031 48 L 19.089844 43.892578 C 19.635993 43.717816 20.159109 43.498408 20.660156 43.230469 L 24.105469 45.707031 L 27.607422 42.207031 L 25.132812 38.761719 C 25.396155 38.231419 25.627269 37.70796 25.804688 37.189453 L 30 36.435547 L 30 35.599609 L 30 31.542969 L 25.785156 30.894531 C 25.611067 30.354323 25.396058 29.835766 25.130859 29.339844 L 27.597656 25.908203 L 24.121094 22.28125 L 20.662109 24.767578 C 20.136177 24.506371 19.616086 24.27788 19.101562 24.101562 L 18.455078 20 L 13.544922 20 z M 15.253906 22 L 16.746094 22 L 17.306641 25.556641 L 17.882812 25.748047 C 18.782813 26.048047 19.602924 26.331417 20.269531 26.748047 L 20.839844 27.103516 L 23.878906 24.917969 L 25.001953 26.091797 L 22.796875 29.160156 L 23.152344 29.730469 C 23.600733 30.447892 23.953672 31.255393 24.123047 32.017578 L 24.271484 32.683594 L 28 33.257812 L 28 34.763672 L 24.339844 35.419922 L 24.150391 35.984375 C 23.850391 36.884375 23.568973 37.702534 23.152344 38.369141 L 22.796875 38.939453 L 24.992188 41.994141 L 23.894531 43.091797 L 20.839844 40.896484 L 20.269531 41.251953 C 19.552108 41.700343 18.744607 42.055235 17.982422 42.224609 L 17.335938 42.367188 L 16.667969 46 L 15.154297 46 L 14.59375 42.443359 L 14.015625 42.251953 C 13.115625 41.951953 12.297466 41.668583 11.630859 41.251953 L 11.074219 40.904297 L 8.0195312 43.003906 L 6.9179688 41.902344 L 9.109375 38.947266 L 8.7480469 38.369141 C 8.2996573 37.651717 7.9447651 36.84617 7.7753906 36.083984 L 7.6328125 35.4375 L 4 34.767578 L 4 33.232422 L 7.5625 32.576172 L 7.7480469 32.015625 C 8.0480469 31.115625 8.3314175 30.297466 8.7480469 29.630859 L 9.0957031 29.074219 L 6.9960938 26.019531 L 8.1054688 24.908203 L 11.160156 27.103516 L 11.730469 26.748047 C 12.447892 26.299657 13.255393 25.944765 14.017578 25.775391 L 14.681641 25.628906 L 15.253906 22 z M 16 29 C 14.416667 29 13.101892 29.629756 12.251953 30.585938 C 11.402014 31.542119 11 32.777778 11 34 C 11 35.222222 11.402014 36.457881 12.251953 37.414062 C 13.101892 38.370244 14.416667 39 16 39 C 17.583333 39 18.898108 38.370244 19.748047 37.414062 C 20.597986 36.457881 21 35.222222 21 34 C 21 32.777778 20.597986 31.542119 19.748047 30.585938 C 18.898108 29.629756 17.583333 29 16 29 z M 16 31 C 17.083333 31 17.768559 31.370244 18.251953 31.914062 C 18.735347 32.457881 19 33.222222 19 34 C 19 34.777778 18.735347 35.542119 18.251953 36.085938 C 17.768559 36.629756 17.083333 37 16 37 C 14.916667 37 14.231441 36.629756 13.748047 36.085938 C 13.264653 35.542119 13 34.777778 13 34 C 13 33.222222 13.264653 32.457881 13.748047 31.914062 C 14.231441 31.370244 14.916667 31 16 31 z"/></svg>